<?xml version="1.0" encoding="utf-8"?>
<svg version="1.1" xmlns:xlink="http://www.w3.org/1999/xlink" width="13px" height="13px" xmlns="http://www.w3.org/2000/svg">
  <g transform="matrix(1 0 0 1 -79 -303 )">
    <path d="M 6.88832421875 2.84788232421875  C 8.00711767578125 3.96460009765625  9.10791552734375 5.06364599609375  10.24765625 6.201025390625  C 10.2108271484375 6.22313427734375  10.1539458007812 6.24400537109375  10.1148125 6.28289111328125  C 8.44811474609375 7.93193603515625  6.77960791015625 9.57881005859375  5.12205078125 11.2369956054687  C 4.90555126953125 11.4534951171875  4.672560546875 11.5913662109375  4.38057470703125 11.6741840820312  C 3.24325244140625 11.99701953125  2.1106337890625 12.336365234375  0.975653808593751 12.6680747070312  C 0.722610839843751 12.74198046875  0.524640136718751 12.6753872070312  0.397090332031251 12.4789018554687  C 0.312844238281251 12.3493334960937  0.313129882812501 12.2076157226563  0.354072265625001 12.06709765625  C 0.716421875000001 10.8263911132812  1.0793046875 9.5859130859375  1.44753857421875 8.347244140625  C 1.4743701171875 8.25768505859375  1.5314990234375 8.1669453125  1.59805419921875 8.10069482421875  C 3.32631787109375 6.38629443359375  5.05816162109375 4.6754169921875  6.788462890625 2.96332080078125  C 6.8258251953125 2.92618701171875  6.85768408203125 2.88322607421875  6.88830517578125 2.84786328125  Z M 2.2647294921875 8.88248486328125  C 2.24734326171875 8.93431982421875  2.233765625 8.97145361328125  2.2226064453125 9.00946337890625  C 2.06936767578125 9.52905078125  1.9350576171875 10.0551889648437  1.756548828125 10.565978515625  C 1.66348583984375 10.8322563476562  1.68911767578125 11.0196201171875  1.921537109375 11.177791015625  C 1.96451708984375 11.2069838867187  2.00165087890625 11.248173828125  2.03371923828125 11.2896875  C 2.08441162109375 11.3559951171875  2.1409501953125 11.3578041992187  2.21607470703125 11.3350668945313  C 2.6408662109375 11.20666015625  3.06710498046875 11.0823857421875  3.49305810546875 10.9571782226562  C 3.70607275390625 10.8944125976562  3.91927783203125 10.8322373046875  4.14733642578125 10.765701171875  C 4.11168798828125 10.7250063476563  4.0922451171875 10.69295703125  4.06427099609375 10.6729047851563  C 3.88898046875 10.5459453125  3.81122802734375 10.3774340820313  3.82714794921875 10.1606108398437  C 3.833298828125 10.0798876953125  3.8224443359375 9.99771728515625  3.81770263671875 9.91615625  C 3.8038583984375 9.68992578125  3.78944287109375 9.4636572265625  3.7746845703125 9.2320947265625  C 3.46302734375 9.20648193359375  3.16700439453125 9.1755751953125  2.87039111328125 9.1602646484375  C 2.65383447265625 9.14904833984374  2.4494462890625 9.1275107421875  2.317173828125 8.92514111328125  C 2.30889013671875 8.912515625  2.29272265625 8.9048603515625  2.264767578125 8.8824658203125  Z M 11.8857514648438 4.31601904296875  C 10.82793359375 3.25970556640625  9.7721533203125 2.205125  8.70492822265625 1.13934716796875  C 8.96151318359375 0.906032714843749  9.1683388671875 0.60058349609375  9.50560888671875 0.437994628906249  C 9.91210009765625 0.24238525390625  10.417291015625 0.33489599609375  10.7778315429687 0.689247558593749  C 11.3013227539063 1.20413134765625  11.8227192382813 1.72171923828125  12.3352797851563 2.24783837890625  C 12.8092021484375 2.73385302734375  12.8012612304688 3.39020703125  12.3293955078125 3.87620263671875  C 12.1817744140625 4.02793701171875  12.0289165039063 4.17433935546875  11.8857705078125 4.316  Z M 11.4539140625 4.9411044921875  C 11.2162197265625 5.1638310546875  10.9693276367188 5.39474609375  10.7283579101562 5.62038623046875  C 9.61845751953125 4.51048583984375  8.51556494140625 3.40785986328125  7.4067880859375 2.2990830078125  C 7.649814453125 2.0713671875  7.8963447265625 1.8401474609375  8.13200146484375 1.61915380859375  C 9.24018798828125 2.72707373046875  10.3421665039062 3.82909033203125  11.4538950195312 4.94106640625  Z " fill-rule="nonzero" fill="#ffffff" stroke="none" transform="matrix(1 0 0 1 79 303 )" />
  </g>
</svg>