<?xml version="1.0" encoding="utf-8"?>
<svg version="1.1" xmlns:xlink="http://www.w3.org/1999/xlink" width="12px" height="16px" xmlns="http://www.w3.org/2000/svg">
  <g transform="matrix(1 0 0 1 -1347 -44 )">
    <path d="M 7.924 7.26999999804687  L 7.93400000195312 7.2660000078125  C 8.35592293499061 6.54215069842057  9.02710915782961 5.99681188845823  9.82199999804688 5.732  C 10.2532458873743 5.50902816777879  10.6119449102379 5.16767435610931  10.8559999960938 4.74799999414063  C 11.5745271395822 3.48478657005961  11.1341995232589 1.87830673208545  9.8720000078125 1.15799999609375  C 9.47667869931864 0.929690855451945  9.02821270251302 0.809492712550644  8.57169983232216 0.809492712550644  C 7.63847913394431 0.809492712550644  6.77683896130275 1.30964145029168  6.31400000195313 2.11999999414063  L 6.30199999609375 2.14200000195313  C 6.0513550487543 2.5852192307489  5.93529106263934 3.09186980190479  5.96799999414062 3.60000000195313  C 6.24942529322387 5.02333998795641  5.58146821320544 6.46586882360097  4.31399999804687 7.172  L 7.48199999804688 9.00000000195312  C 7.47477740093466 8.39451520982129  7.6272286286574 7.79781696685653  7.924 7.26999999804687  Z M 8.59799999804688 13.2780000078125  L 0.0641999980468757 8.38679999609375  L 1.0430000078125 6.6792000078125  L 9.57660000390625 11.5706000058594  L 8.59799999804688 13.2780000078125  Z M 1.60000000585937 15.4000000039062  L 1.60000000585937 14.4000000019531  L 11.2 14.4000000019531  L 11.2 15.4000000039062  L 1.60000000585937 15.4000000039062  Z " fill-rule="nonzero" fill="#ff8e44" stroke="none" transform="matrix(1 0 0 1 1347 44 )" />
  </g>
</svg>