<?xml version="1.0" encoding="utf-8"?>
<svg version="1.1" xmlns:xlink="http://www.w3.org/1999/xlink" width="16px" height="18px" xmlns="http://www.w3.org/2000/svg">
  <g transform="matrix(1 0 0 1 -1315 -43 )">
    <path d="M 10.7585 12.14775  C 10.4795 12.1455  10.2545 12.375  10.2545 12.65175  C 10.2545 12.93075  10.4795 13.15575  10.7585 13.15575  L 15.33275 13.15575  C 15.61175 13.15575  15.83675 12.93075  15.83675 12.65175  C 15.83675 12.37275  15.61175 12.14775  15.33275 12.14775  L 10.7585 12.14775  Z M 15.83675 14.70375  C 15.83675 14.42925  15.61175 14.19975  15.33275 14.19975  L 10.7585 14.19975  C 10.4795 14.19975  10.2545 14.42475  10.2545 14.70375  C 10.2545 14.98275  10.4795 15.20775  10.7585 15.20775  L 15.33275 15.20775  C 15.61175 15.20775  15.83675 14.98275  15.83675 14.70375  Z M 15.83675 16.76025  C 15.83675 16.48125  15.61175 16.25625  15.33275 16.25625  L 10.7585 16.25625  C 10.4795 16.25625  10.2545 16.48125  10.2545 16.76025  C 10.2545 17.03925  10.4795 17.26425  10.7585 17.26425  L 15.33275 17.26425  C 15.61175 17.26425  15.83675 17.03925  15.83675 16.76025  Z M 1.73825 16.245  C 1.736 16.245  1.35575 16.22925  1.268 16.0335  C 1.18925 15.858  1.16675 15.54525  1.1735 15.39  L 1.1735 15.381  C 1.24325 11.88225  4.17275 9.036  7.703 9.036  C 9.5705 9.036  11.2715 9.8325  12.4685 11.10375  L 13.796 11.10375  C 13.553 10.77525  13.283 10.46025  12.98375 10.17  C 12.11975 9.32625000000001  11.0825 8.71650000000001  9.9575 8.3655  C 11.096 7.62525  11.852 6.34275  11.852 4.88475  C 11.852 2.5965  9.99125 0.735750000000004  7.703 0.735750000000004  C 5.41475 0.735750000000004  3.554 2.5965  3.554 4.88475  C 3.554 6.34275  4.31 7.62525  5.4485 8.3655  C 4.32125 8.71425  3.28625 9.324  2.42225 10.1655  C 1.007 11.54475  0.20375 13.3875  0.16325 15.354  C 0.161 15.44175  0.14975 16.011  0.34775 16.44975  C 0.64025 17.0955  1.367 17.25975  1.745 17.253  L 9.206 17.25975  L 9.206 16.25175  L 1.73825 16.245  Z M 7.703 8.02575  C 5.9705 8.02575  4.562 6.61725  4.562 4.88475  C 4.562 3.15225  5.9705 1.74375  7.703 1.74375  C 9.4355 1.74375  10.844 3.15225  10.844 4.88475  C 10.844 6.61725  9.4355 8.02575  7.703 8.02575  Z " fill-rule="nonzero" fill="#409eff" stroke="none" transform="matrix(1 0 0 1 1315 43 )" />
  </g>
</svg>