<?xml version="1.0" encoding="utf-8"?>
<svg version="1.1" xmlns:xlink="http://www.w3.org/1999/xlink" width="12px" height="12px" viewBox="11 13  12 12" xmlns="http://www.w3.org/2000/svg">
  <path d="M 11.5 15  A 1.5 1.5 0 0 1 13 13.5 L 21 13.5  A 1.5 1.5 0 0 1 22.5 15 L 22.5 23  A 1.5 1.5 0 0 1 21 24.5 L 13 24.5  A 1.5 1.5 0 0 1 11.5 23 L 11.5 15  Z " fill-rule="nonzero" fill="#f0f0f0" stroke="none" />
  <path d="M 11.5 15  A 1.5 1.5 0 0 1 13 13.5 L 21 13.5  A 1.5 1.5 0 0 1 22.5 15 L 22.5 23  A 1.5 1.5 0 0 1 21 24.5 L 13 24.5  A 1.5 1.5 0 0 1 11.5 23 L 11.5 15  Z " stroke-width="1" stroke="#cccccc" fill="none" />
  <path d="M 13.5714285714286 19  L 16.1428571428571 21.5714285714286  " stroke-width="2.57142857142857" stroke="#cccccc" fill="none" />
  <path d="M 16.1428571428571 21.5714285714286  L 20.4285714285714 15.5714285714286  " stroke-width="2.57142857142857" stroke="#cccccc" fill="none" />
</svg>