<?xml version="1.0" encoding="utf-8"?>
<svg version="1.1" xmlns:xlink="http://www.w3.org/1999/xlink" width="12px" height="12px" viewBox="11 294  12 12" xmlns="http://www.w3.org/2000/svg">
  <path d="M 11.5 296  A 1.5 1.5 0 0 1 13 294.5 L 21 294.5  A 1.5 1.5 0 0 1 22.5 296 L 22.5 304  A 1.5 1.5 0 0 1 21 305.5 L 13 305.5  A 1.5 1.5 0 0 1 11.5 304 L 11.5 296  Z " fill-rule="nonzero" fill="#ffffff" stroke="none" />
  <path d="M 11.5 296  A 1.5 1.5 0 0 1 13 294.5 L 21 294.5  A 1.5 1.5 0 0 1 22.5 296 L 22.5 304  A 1.5 1.5 0 0 1 21 305.5 L 13 305.5  A 1.5 1.5 0 0 1 11.5 304 L 11.5 296  Z " stroke-width="1" stroke="#cccccc" fill="none" />
  <path d="M 13.5714285714286 300  L 16.1428571428571 302.571428571429  " stroke-width="2.57142857142857" stroke="#cccccc" fill="none" />
  <path d="M 16.1428571428571 302.571428571429  L 20.4285714285714 296.571428571429  " stroke-width="2.57142857142857" stroke="#cccccc" fill="none" />
</svg>