<?xml version="1.0" encoding="utf-8"?>
<svg version="1.1" xmlns:xlink="http://www.w3.org/1999/xlink" width="12px" height="12px" viewBox="11 118  12 12" xmlns="http://www.w3.org/2000/svg">
  <path d="M 11.5 120  A 1.5 1.5 0 0 1 13 118.5 L 21 118.5  A 1.5 1.5 0 0 1 22.5 120 L 22.5 128  A 1.5 1.5 0 0 1 21 129.5 L 13 129.5  A 1.5 1.5 0 0 1 11.5 128 L 11.5 120  Z " fill-rule="nonzero" fill="#f0f0f0" stroke="none" />
  <path d="M 11.5 120  A 1.5 1.5 0 0 1 13 118.5 L 21 118.5  A 1.5 1.5 0 0 1 22.5 120 L 22.5 128  A 1.5 1.5 0 0 1 21 129.5 L 13 129.5  A 1.5 1.5 0 0 1 11.5 128 L 11.5 120  Z " stroke-width="1" stroke="#cccccc" fill="none" />
  <path d="M 13.5714285714286 124  L 16.1428571428571 126.571428571429  " stroke-width="2.57142857142857" stroke="#cccccc" fill="none" />
  <path d="M 16.1428571428571 126.571428571429  L 20.4285714285714 120.571428571429  " stroke-width="2.57142857142857" stroke="#cccccc" fill="none" />
</svg>