<?xml version="1.0" encoding="utf-8"?>
<svg version="1.1" xmlns:xlink="http://www.w3.org/1999/xlink" width="12px" height="12px" viewBox="11 152  12 12" xmlns="http://www.w3.org/2000/svg">
  <path d="M 11.5 154  A 1.5 1.5 0 0 1 13 152.5 L 21 152.5  A 1.5 1.5 0 0 1 22.5 154 L 22.5 162  A 1.5 1.5 0 0 1 21 163.5 L 13 163.5  A 1.5 1.5 0 0 1 11.5 162 L 11.5 154  Z " fill-rule="nonzero" fill="#ffffff" stroke="none" />
  <path d="M 11.5 154  A 1.5 1.5 0 0 1 13 152.5 L 21 152.5  A 1.5 1.5 0 0 1 22.5 154 L 22.5 162  A 1.5 1.5 0 0 1 21 163.5 L 13 163.5  A 1.5 1.5 0 0 1 11.5 162 L 11.5 154  Z " stroke-width="1" stroke="#cccccc" fill="none" />
</svg>