<?xml version="1.0" encoding="utf-8"?>
<svg version="1.1" xmlns:xlink="http://www.w3.org/1999/xlink" width="12px" height="12px" viewBox="11 222  12 12" xmlns="http://www.w3.org/2000/svg">
  <path d="M 11.5 224  A 1.5 1.5 0 0 1 13 222.5 L 21 222.5  A 1.5 1.5 0 0 1 22.5 224 L 22.5 232  A 1.5 1.5 0 0 1 21 233.5 L 13 233.5  A 1.5 1.5 0 0 1 11.5 232 L 11.5 224  Z " fill-rule="nonzero" fill="#ffffff" stroke="none" />
  <path d="M 11.5 224  A 1.5 1.5 0 0 1 13 222.5 L 21 222.5  A 1.5 1.5 0 0 1 22.5 224 L 22.5 232  A 1.5 1.5 0 0 1 21 233.5 L 13 233.5  A 1.5 1.5 0 0 1 11.5 232 L 11.5 224  Z " stroke-width="1" stroke="#cccccc" fill="none" />
</svg>