<?xml version="1.0" encoding="utf-8"?>
<svg version="1.1" xmlns:xlink="http://www.w3.org/1999/xlink" width="12px" height="12px" viewBox="11 257  12 12" xmlns="http://www.w3.org/2000/svg">
  <path d="M 11.5 259  A 1.5 1.5 0 0 1 13 257.5 L 21 257.5  A 1.5 1.5 0 0 1 22.5 259 L 22.5 267  A 1.5 1.5 0 0 1 21 268.5 L 13 268.5  A 1.5 1.5 0 0 1 11.5 267 L 11.5 259  Z " fill-rule="nonzero" fill="#f0f0f0" stroke="none" />
  <path d="M 11.5 259  A 1.5 1.5 0 0 1 13 257.5 L 21 257.5  A 1.5 1.5 0 0 1 22.5 259 L 22.5 267  A 1.5 1.5 0 0 1 21 268.5 L 13 268.5  A 1.5 1.5 0 0 1 11.5 267 L 11.5 259  Z " stroke-width="1" stroke="#cccccc" fill="none" />
  <path d="M 13.5714285714286 263  L 16.1428571428571 265.571428571429  " stroke-width="2.57142857142857" stroke="#cccccc" fill="none" />
  <path d="M 16.1428571428571 265.571428571429  L 20.4285714285714 259.571428571429  " stroke-width="2.57142857142857" stroke="#cccccc" fill="none" />
</svg>