<?xml version="1.0" encoding="utf-8"?>
<svg version="1.1" xmlns:xlink="http://www.w3.org/1999/xlink" width="12px" height="12px" viewBox="11 292  12 12" xmlns="http://www.w3.org/2000/svg">
  <path d="M 11.5 294  A 1.5 1.5 0 0 1 13 292.5 L 21 292.5  A 1.5 1.5 0 0 1 22.5 294 L 22.5 302  A 1.5 1.5 0 0 1 21 303.5 L 13 303.5  A 1.5 1.5 0 0 1 11.5 302 L 11.5 294  Z " fill-rule="nonzero" fill="#ffffff" stroke="none" />
  <path d="M 11.5 294  A 1.5 1.5 0 0 1 13 292.5 L 21 292.5  A 1.5 1.5 0 0 1 22.5 294 L 22.5 302  A 1.5 1.5 0 0 1 21 303.5 L 13 303.5  A 1.5 1.5 0 0 1 11.5 302 L 11.5 294  Z " stroke-width="1" stroke="#cccccc" fill="none" />
</svg>