<?xml version="1.0" encoding="utf-8"?>
<svg version="1.1" xmlns:xlink="http://www.w3.org/1999/xlink" width="12px" height="12px" viewBox="11 398  12 12" xmlns="http://www.w3.org/2000/svg">
  <path d="M 11.5 400  A 1.5 1.5 0 0 1 13 398.5 L 21 398.5  A 1.5 1.5 0 0 1 22.5 400 L 22.5 408  A 1.5 1.5 0 0 1 21 409.5 L 13 409.5  A 1.5 1.5 0 0 1 11.5 408 L 11.5 400  Z " fill-rule="nonzero" fill="#f0f0f0" stroke="none" />
  <path d="M 11.5 400  A 1.5 1.5 0 0 1 13 398.5 L 21 398.5  A 1.5 1.5 0 0 1 22.5 400 L 22.5 408  A 1.5 1.5 0 0 1 21 409.5 L 13 409.5  A 1.5 1.5 0 0 1 11.5 408 L 11.5 400  Z " stroke-width="1" stroke="#cccccc" fill="none" />
</svg>