<?xml version="1.0" encoding="utf-8"?>
<svg version="1.1" xmlns:xlink="http://www.w3.org/1999/xlink" width="12px" height="12px" viewBox="11 433  12 12" xmlns="http://www.w3.org/2000/svg">
  <path d="M 11.5 435  A 1.5 1.5 0 0 1 13 433.5 L 21 433.5  A 1.5 1.5 0 0 1 22.5 435 L 22.5 443  A 1.5 1.5 0 0 1 21 444.5 L 13 444.5  A 1.5 1.5 0 0 1 11.5 443 L 11.5 435  Z " fill-rule="nonzero" fill="#f0f0f0" stroke="none" />
  <path d="M 11.5 435  A 1.5 1.5 0 0 1 13 433.5 L 21 433.5  A 1.5 1.5 0 0 1 22.5 435 L 22.5 443  A 1.5 1.5 0 0 1 21 444.5 L 13 444.5  A 1.5 1.5 0 0 1 11.5 443 L 11.5 435  Z " stroke-width="1" stroke="#cccccc" fill="none" />
  <path d="M 13.5714285714286 439  L 16.1428571428571 441.571428571429  " stroke-width="2.57142857142857" stroke="#cccccc" fill="none" />
  <path d="M 16.1428571428571 441.571428571429  L 20.4285714285714 435.571428571429  " stroke-width="2.57142857142857" stroke="#cccccc" fill="none" />
</svg>