<?xml version="1.0" encoding="utf-8"?>
<svg version="1.1" xmlns:xlink="http://www.w3.org/1999/xlink" width="12px" height="12px" viewBox="11 468  12 12" xmlns="http://www.w3.org/2000/svg">
  <path d="M 11.5 470  A 1.5 1.5 0 0 1 13 468.5 L 21 468.5  A 1.5 1.5 0 0 1 22.5 470 L 22.5 478  A 1.5 1.5 0 0 1 21 479.5 L 13 479.5  A 1.5 1.5 0 0 1 11.5 478 L 11.5 470  Z " fill-rule="nonzero" fill="#ffffff" stroke="none" />
  <path d="M 11.5 470  A 1.5 1.5 0 0 1 13 468.5 L 21 468.5  A 1.5 1.5 0 0 1 22.5 470 L 22.5 478  A 1.5 1.5 0 0 1 21 479.5 L 13 479.5  A 1.5 1.5 0 0 1 11.5 478 L 11.5 470  Z " stroke-width="1" stroke="#cccccc" fill="none" />
  <path d="M 13.5714285714286 474  L 16.1428571428571 476.571428571429  " stroke-width="2.57142857142857" stroke="#cccccc" fill="none" />
  <path d="M 16.1428571428571 476.571428571429  L 20.4285714285714 470.571428571429  " stroke-width="2.57142857142857" stroke="#cccccc" fill="none" />
</svg>