<?xml version="1.0" encoding="utf-8"?>
<svg version="1.1" xmlns:xlink="http://www.w3.org/1999/xlink" width="12px" height="10px" xmlns="http://www.w3.org/2000/svg">
  <g transform="matrix(1 0 0 1 -1105 -47 )">
    <path d="M 0.48 0.395121951219512  C 0.633600000000001 0.239024390243903  0.864 0.0829268292682931  1.0944 0.0829268292682926  C 1.3248 0.0829268292682926  1.5552 0.160975609756098  1.7856 0.395121951219512  C 2.016 0.629268292682926  2.0928 0.863414634146341  2.0928 1.09756097560976  C 2.0928 1.33170731707317  2.016 1.56585365853659  1.7856 1.8  C 1.632 1.95609756097561  1.4016 2.03414634146341  1.0944 2.03414634146341  C 0.787200000000001 2.03414634146341  0.633600000000001 1.95609756097561  0.403200000000001 1.8  C 0.249600000000001 1.56585365853658  0.172800000000001 1.33170731707317  0.172800000000001 1.09756097560976  C 0.172800000000001 0.863414634146341  0.249600000000001 0.629268292682927  0.48 0.395121951219512  Z M 0.403200000000001 4.29756097560976  C 0.633600000000001 4.14146341463415  0.864 3.98536585365854  1.0944 3.98536585365854  C 1.3248 3.98536585365854  1.5552 4.06341463414634  1.7856 4.29756097560976  C 2.016 4.53170731707317  2.0928 4.76585365853659  2.0928 5  C 2.0928 5.23414634146341  2.016 5.46829268292683  1.7856 5.70243902439024  C 1.632 5.85853658536585  1.4016 6.01463414634146  1.0944 6.01463414634146  C 0.787200000000001 6.01463414634146  0.633600000000001 5.93658536585366  0.403200000000001 5.70243902439024  C 0.249600000000001 5.54634146341463  0.0960000000000005 5.31219512195122  0.0960000000000005 5  C 0.0960000000000005 4.68780487804878  0.172800000000001 4.53170731707317  0.403200000000001 4.29756097560976  Z M 0.403200000000001 8.2  C 0.633600000000001 8.04390243902439  0.864 7.88780487804878  1.0944 7.88780487804878  C 1.3248 7.88780487804878  1.5552 7.96585365853659  1.7856 8.2  C 1.9392 8.43414634146342  2.0928 8.59024390243903  2.0928 8.90243902439025  C 2.0928 9.21463414634147  2.016 9.37073170731708  1.7856 9.60487804878049  C 1.5552 9.7609756097561  1.4016 9.91707317073171  1.0944 9.91707317073171  C 0.787200000000001 9.91707317073171  0.633600000000001 9.8390243902439  0.403200000000001 9.60487804878049  C 0.249600000000001 9.44878048780488  0.0960000000000005 9.21463414634147  0.0960000000000005 8.90243902439025  C 0.0960000000000005 8.59024390243903  0.172800000000001 8.43414634146342  0.403200000000001 8.2  Z M 3.0144 1.7219512195122  L 3.0144 0.473170731707318  L 12 0.473170731707318  L 12 1.7219512195122  L 3.0144 1.7219512195122  Z M 12 5.62439024390244  L 3.0144 5.62439024390244  L 3.0144 4.37560975609756  L 12 4.37560975609756  L 12 5.62439024390244  Z M 12 9.52682926829268  L 3.0144 9.52682926829268  L 3.0144 8.27804878048781  L 12 8.27804878048781  L 12 9.52682926829268  Z " fill-rule="nonzero" fill="#ffffff" stroke="none" transform="matrix(1 0 0 1 1105 47 )" />
  </g>
</svg>