<?xml version="1.0" encoding="utf-8"?>
<svg version="1.1" xmlns:xlink="http://www.w3.org/1999/xlink" width="240px" height="30px" xmlns="http://www.w3.org/2000/svg">
  <g transform="matrix(1 0 0 1 -115 -41 )">
    <path d="M 116 44  A 2 2 0 0 1 118 42 L 352 42  A 2 2 0 0 1 354 44 L 354 68  A 2 2 0 0 1 352 70 L 118 70  A 2 2 0 0 1 116 68 L 116 44  Z " fill-rule="nonzero" fill="#ffffff" stroke="none" />
    <path d="M 115.5 44  A 2.5 2.5 0 0 1 118 41.5 L 352 41.5  A 2.5 2.5 0 0 1 354.5 44 L 354.5 68  A 2.5 2.5 0 0 1 352 70.5 L 118 70.5  A 2.5 2.5 0 0 1 115.5 68 L 115.5 44  Z " stroke-width="1" stroke="#cccccc" fill="none" stroke-opacity="0.498039215686275" />
  </g>
</svg>