<?xml version="1.0" encoding="utf-8"?>
<svg version="1.1" xmlns:xlink="http://www.w3.org/1999/xlink" width="240px" height="30px" xmlns="http://www.w3.org/2000/svg">
  <g transform="matrix(1 0 0 1 -115 -76 )">
    <path d="M 116 79  A 2 2 0 0 1 118 77 L 352 77  A 2 2 0 0 1 354 79 L 354 103  A 2 2 0 0 1 352 105 L 118 105  A 2 2 0 0 1 116 103 L 116 79  Z " fill-rule="nonzero" fill="#ffffff" stroke="none" />
    <path d="M 115.5 79  A 2.5 2.5 0 0 1 118 76.5 L 352 76.5  A 2.5 2.5 0 0 1 354.5 79 L 354.5 103  A 2.5 2.5 0 0 1 352 105.5 L 118 105.5  A 2.5 2.5 0 0 1 115.5 103 L 115.5 79  Z " stroke-width="1" stroke="#cccccc" fill="none" stroke-opacity="0.498039215686275" />
  </g>
</svg>