<?xml version="1.0" encoding="utf-8"?>
<svg version="1.1" xmlns:xlink="http://www.w3.org/1999/xlink" width="8px" height="5px" xmlns="http://www.w3.org/2000/svg">
  <g transform="matrix(1 0 0 1 -170 -97 )">
    <path d="M 0.60546875 1.0830078125  C 0.606770833333333 0.63916015625  0.92578125 0.27880859375  1.3203125 0.27880859375  L 6.67838541666667 0.27880859375  C 7.07291666666667 0.27880859375  7.39322916666667 0.639160156250001  7.39322916666667 1.0830078125  C 7.39322916666667 1.52685546875  7.07291666666667 1.88720703125  6.67838541666667 1.88720703125  L 1.3203125 1.88720703125  C 0.92578125 1.88720703125  0.60546875 1.52685546875  0.60546875 1.0830078125  Z M 0.60546875 3.8955078125  C 0.606770833333333 3.45166015625  0.92578125 3.09130859375  1.3203125 3.09130859375  L 6.67838541666667 3.09130859375  C 7.07291666666667 3.09130859375  7.39322916666667 3.45166015625  7.39322916666667 3.8955078125  C 7.39322916666667 4.33935546875  7.07291666666667 4.6982421875  6.67838541666667 4.6982421875  L 1.3203125 4.6982421875  C 0.92578125 4.6982421875  0.60546875 4.337890625  0.60546875 3.8955078125  Z " fill-rule="nonzero" fill="#ffffff" stroke="none" transform="matrix(1 0 0 1 170 97 )" />
  </g>
</svg>