<?xml version="1.0" encoding="utf-8"?>
<svg version="1.1" xmlns:xlink="http://www.w3.org/1999/xlink" width="14px" height="10px" xmlns="http://www.w3.org/2000/svg">
  <g transform="matrix(1 0 0 1 -167 -94 )">
    <path d="M 13.125 1.61843039772727  C 13.125 0.864701704545455  12.4974609375 0.254794034090909  11.725 0.254794034090909  L 2.275 0.254794034090909  C 1.501171875 0.254794034090909  0.875 0.864701704545454  0.875 1.61843039772727  L 0.875 8.48455255681818  C 0.875 9.23828125  1.501171875 9.84818892045455  2.275 9.84818892045455  L 11.725 9.84818892045455  C 12.498828125 9.84818892045455  13.125 9.23694957386364  13.125 8.48455255681818  L 13.125 1.61843039772727  Z M 11.725 2.29891690340909  L 11.725 7.80140269886364  C 11.725 8.17826704545455  11.4119140625 8.48322088068182  11.025 8.48322088068182  L 2.975 8.48322088068182  C 2.5880859375 8.48322088068182  2.275 8.17826704545455  2.275 7.80140269886364  L 2.275 2.29891690340909  C 2.275 1.92205255681818  2.5880859375 1.61709872159091  2.975 1.61709872159091  L 11.025 1.61709872159091  C 11.4119140625 1.61709872159091  11.725 1.92205255681818  11.725 2.29891690340909  Z " fill-rule="nonzero" fill="#ffffff" stroke="none" transform="matrix(1 0 0 1 167 94 )" />
  </g>
</svg>