<?xml version="1.0" encoding="utf-8"?>
<svg version="1.1" xmlns:xlink="http://www.w3.org/1999/xlink" width="12px" height="12px" viewBox="12 503  12 12" xmlns="http://www.w3.org/2000/svg">
  <path d="M 12.5 505  A 1.5 1.5 0 0 1 14 503.5 L 22 503.5  A 1.5 1.5 0 0 1 23.5 505 L 23.5 513  A 1.5 1.5 0 0 1 22 514.5 L 14 514.5  A 1.5 1.5 0 0 1 12.5 513 L 12.5 505  Z " fill-rule="nonzero" fill="#f0f0f0" stroke="none" />
  <path d="M 12.5 505  A 1.5 1.5 0 0 1 14 503.5 L 22 503.5  A 1.5 1.5 0 0 1 23.5 505 L 23.5 513  A 1.5 1.5 0 0 1 22 514.5 L 14 514.5  A 1.5 1.5 0 0 1 12.5 513 L 12.5 505  Z " stroke-width="1" stroke="#cccccc" fill="none" />
</svg>