<?xml version="1.0" encoding="utf-8"?>
<svg version="1.1" xmlns:xlink="http://www.w3.org/1999/xlink" width="12px" height="12px" viewBox="12 389  12 12" xmlns="http://www.w3.org/2000/svg">
  <path d="M 12.5 391  A 1.5 1.5 0 0 1 14 389.5 L 22 389.5  A 1.5 1.5 0 0 1 23.5 391 L 23.5 399  A 1.5 1.5 0 0 1 22 400.5 L 14 400.5  A 1.5 1.5 0 0 1 12.5 399 L 12.5 391  Z " fill-rule="nonzero" fill="#ffffff" stroke="none" />
  <path d="M 12.5 391  A 1.5 1.5 0 0 1 14 389.5 L 22 389.5  A 1.5 1.5 0 0 1 23.5 391 L 23.5 399  A 1.5 1.5 0 0 1 22 400.5 L 14 400.5  A 1.5 1.5 0 0 1 12.5 399 L 12.5 391  Z " stroke-width="1" stroke="#cccccc" fill="none" />
  <path d="M 14.5714285714286 395  L 17.1428571428571 397.571428571429  " stroke-width="2.57142857142857" stroke="#cccccc" fill="none" />
  <path d="M 17.1428571428571 397.571428571429  L 21.4285714285714 391.571428571429  " stroke-width="2.57142857142857" stroke="#cccccc" fill="none" />
</svg>