<?xml version="1.0" encoding="utf-8"?>
<svg version="1.1" xmlns:xlink="http://www.w3.org/1999/xlink" width="12px" height="12px" viewBox="12 313  12 12" xmlns="http://www.w3.org/2000/svg">
  <path d="M 12.5 315  A 1.5 1.5 0 0 1 14 313.5 L 22 313.5  A 1.5 1.5 0 0 1 23.5 315 L 23.5 323  A 1.5 1.5 0 0 1 22 324.5 L 14 324.5  A 1.5 1.5 0 0 1 12.5 323 L 12.5 315  Z " fill-rule="nonzero" fill="#f0f0f0" stroke="none" />
  <path d="M 12.5 315  A 1.5 1.5 0 0 1 14 313.5 L 22 313.5  A 1.5 1.5 0 0 1 23.5 315 L 23.5 323  A 1.5 1.5 0 0 1 22 324.5 L 14 324.5  A 1.5 1.5 0 0 1 12.5 323 L 12.5 315  Z " stroke-width="1" stroke="#cccccc" fill="none" />
</svg>