<?xml version="1.0" encoding="utf-8"?>
<svg version="1.1" xmlns:xlink="http://www.w3.org/1999/xlink" width="12px" height="12px" viewBox="12 162  12 12" xmlns="http://www.w3.org/2000/svg">
  <path d="M 12.5 164  A 1.5 1.5 0 0 1 14 162.5 L 22 162.5  A 1.5 1.5 0 0 1 23.5 164 L 23.5 172  A 1.5 1.5 0 0 1 22 173.5 L 14 173.5  A 1.5 1.5 0 0 1 12.5 172 L 12.5 164  Z " fill-rule="nonzero" fill="#f0f0f0" stroke="none" />
  <path d="M 12.5 164  A 1.5 1.5 0 0 1 14 162.5 L 22 162.5  A 1.5 1.5 0 0 1 23.5 164 L 23.5 172  A 1.5 1.5 0 0 1 22 173.5 L 14 173.5  A 1.5 1.5 0 0 1 12.5 172 L 12.5 164  Z " stroke-width="1" stroke="#cccccc" fill="none" />
</svg>