<?xml version="1.0" encoding="utf-8"?>
<svg version="1.1" xmlns:xlink="http://www.w3.org/1999/xlink" width="12px" height="12px" viewBox="12 313  12 12" xmlns="http://www.w3.org/2000/svg">
  <path d="M 12.5 315  A 1.5 1.5 0 0 1 14 313.5 L 22 313.5  A 1.5 1.5 0 0 1 23.5 315 L 23.5 323  A 1.5 1.5 0 0 1 22 324.5 L 14 324.5  A 1.5 1.5 0 0 1 12.5 323 L 12.5 315  Z " fill-rule="nonzero" fill="#ffffff" stroke="none" />
  <path d="M 12.5 315  A 1.5 1.5 0 0 1 14 313.5 L 22 313.5  A 1.5 1.5 0 0 1 23.5 315 L 23.5 323  A 1.5 1.5 0 0 1 22 324.5 L 14 324.5  A 1.5 1.5 0 0 1 12.5 323 L 12.5 315  Z " stroke-width="1" stroke="#cccccc" fill="none" />
  <path d="M 14.5714285714286 319  L 17.1428571428571 321.571428571429  " stroke-width="2.57142857142857" stroke="#cccccc" fill="none" />
  <path d="M 17.1428571428571 321.571428571429  L 21.4285714285714 315.571428571429  " stroke-width="2.57142857142857" stroke="#cccccc" fill="none" />
</svg>