<?xml version="1.0" encoding="utf-8"?>
<svg version="1.1" xmlns:xlink="http://www.w3.org/1999/xlink" width="12px" height="12px" viewBox="12 427  12 12" xmlns="http://www.w3.org/2000/svg">
  <path d="M 12.5 429  A 1.5 1.5 0 0 1 14 427.5 L 22 427.5  A 1.5 1.5 0 0 1 23.5 429 L 23.5 437  A 1.5 1.5 0 0 1 22 438.5 L 14 438.5  A 1.5 1.5 0 0 1 12.5 437 L 12.5 429  Z " fill-rule="nonzero" fill="#ffffff" stroke="none" />
  <path d="M 12.5 429  A 1.5 1.5 0 0 1 14 427.5 L 22 427.5  A 1.5 1.5 0 0 1 23.5 429 L 23.5 437  A 1.5 1.5 0 0 1 22 438.5 L 14 438.5  A 1.5 1.5 0 0 1 12.5 437 L 12.5 429  Z " stroke-width="1" stroke="#cccccc" fill="none" />
  <path d="M 14.5714285714286 433  L 17.1428571428571 435.571428571429  " stroke-width="2.57142857142857" stroke="#cccccc" fill="none" />
  <path d="M 17.1428571428571 435.571428571429  L 21.4285714285714 429.571428571429  " stroke-width="2.57142857142857" stroke="#cccccc" fill="none" />
</svg>