<?xml version="1.0" encoding="utf-8"?>
<svg version="1.1" xmlns:xlink="http://www.w3.org/1999/xlink" width="12px" height="12px" viewBox="12 541  12 12" xmlns="http://www.w3.org/2000/svg">
  <path d="M 12.5 543  A 1.5 1.5 0 0 1 14 541.5 L 22 541.5  A 1.5 1.5 0 0 1 23.5 543 L 23.5 551  A 1.5 1.5 0 0 1 22 552.5 L 14 552.5  A 1.5 1.5 0 0 1 12.5 551 L 12.5 543  Z " fill-rule="nonzero" fill="#ffffff" stroke="none" />
  <path d="M 12.5 543  A 1.5 1.5 0 0 1 14 541.5 L 22 541.5  A 1.5 1.5 0 0 1 23.5 543 L 23.5 551  A 1.5 1.5 0 0 1 22 552.5 L 14 552.5  A 1.5 1.5 0 0 1 12.5 551 L 12.5 543  Z " stroke-width="1" stroke="#cccccc" fill="none" />
</svg>