<?xml version="1.0" encoding="utf-8"?>
<svg version="1.1" xmlns:xlink="http://www.w3.org/1999/xlink" width="13px" height="13px" xmlns="http://www.w3.org/2000/svg">
  <g transform="matrix(1 0 0 1 -6 -91 )">
    <path d="M 12.9170182785169 5.85189873417722  L 10.567651190926 2.93544303797468  C 10.3246132163477 2.61139240506329  9.83853726719094 2.61139240506329  9.59549929261257 2.93544303797468  L 7.24613220502169 5.85189873417722  C 7.08410688863611 6.09493670886076  7.24613220502169 6.41898734177215  7.48917017960006 6.41898734177215  L 8.38030941972074 6.41898734177215  C 8.38030941972074 8.12025316455696  8.38030941972074 10.3075949367089  5.30182840839475 12.0898734177215  C 5.22081575020196 12.1708860759494  5.30182840839475 12.2518987341772  5.38284106658754 12.2518987341772  C 11.1347397982756 11.3607594936709  11.6208157474323 7.47215189873418  11.6208157474323 6.41898734177215  L 12.5929676457458 6.41898734177215  C 12.9170182785169 6.41898734177215  13.0790435949025 6.09493670886076  12.9170182785169 5.85189873417722  Z M 5.54486638297312 6.58101265822785  L 4.57271448465965 6.58101265822785  C 4.57271448465965 4.87974683544304  4.57271448465965 2.69240506329114  7.65119549598563 0.910126582278481  C 7.73220815417842 0.829113924050633  7.65119549598563 0.748101265822784  7.57018283779284 0.748101265822784  C 1.81828410610482 1.63924050632911  1.33220815694809 5.52784810126582  1.33220815694809 6.58101265822785  L 0.360056258634618 6.58101265822785  C 0.0360056258634618 6.58101265822785  -0.126019690522116 6.90506329113924  0.117018284056251 7.14810126582279  L 2.46638537164713 10.0645569620253  C 2.7094233462255 10.3886075949367  3.19549929538224 10.3886075949367  3.4385372699606 10.0645569620253  L 5.78790435755149 7.14810126582279  C 5.94992967393706 6.90506329113924  5.78790435755149 6.58101265822785  5.54486638297312 6.58101265822785  Z " fill-rule="nonzero" fill="#ffffff" stroke="none" fill-opacity="0.968627450980392" transform="matrix(1 0 0 1 6 91 )" />
  </g>
</svg>