<?xml version="1.0" encoding="utf-8"?>
<svg version="1.1" xmlns:xlink="http://www.w3.org/1999/xlink" width="80px" height="30px" xmlns="http://www.w3.org/2000/svg">
  <g transform="matrix(1 0 0 1 -592 -601 )">
    <path d="M 593 604  A 2 2 0 0 1 595 602 L 669 602  A 2 2 0 0 1 671 604 L 671 628  A 2 2 0 0 1 669 630 L 595 630  A 2 2 0 0 1 593 628 L 593 604  Z " fill-rule="nonzero" fill="#f2f2f2" stroke="none" />
    <path d="M 592.5 604  A 2.5 2.5 0 0 1 595 601.5 L 669 601.5  A 2.5 2.5 0 0 1 671.5 604 L 671.5 628  A 2.5 2.5 0 0 1 669 630.5 L 595 630.5  A 2.5 2.5 0 0 1 592.5 628 L 592.5 604  Z " stroke-width="1" stroke="#797979" fill="none" stroke-opacity="0.466666666666667" />
  </g>
</svg>