<?xml version="1.0" encoding="utf-8"?>
<svg version="1.1" xmlns:xlink="http://www.w3.org/1999/xlink" width="12px" height="12px" xmlns="http://www.w3.org/2000/svg">
  <g transform="matrix(1 0 0 1 -1957 -16 )">
    <path d="M 6.32775167410714 2.91776618303571  C 7.27199832589286 3.86021986607143  8.20096707589286 4.78775725446429  9.16285714285714 5.74767354910714  C 9.13177399553572 5.76629631696429  9.08377064732143 5.78393973214286  9.05072879464286 5.81677064732143  C 7.64409207589286 7.20850613839286  6.23594866071429 8.59835825892857  4.83704129464286 9.99783816964286  C 4.65435435267857 10.1805251116071  4.45768526785714 10.29690234375  4.21126506696429 10.3668130580357  C 3.25140904017857 10.6393744419643  2.29553069196429 10.9256768973214  1.3376484375 11.2056060267857  C 1.12407421875 11.2679832589286  0.957011718750001 11.2117985491071  0.849373325892858 11.0459564732143  C 0.778287388392858 10.9365853794643  0.778513392857144 10.8169988839286  0.813061941964287 10.6984068080357  C 1.11887611607143 9.65129799107143  1.42514229910714 8.60440011160714  1.73591350446429 7.55899386160714  C 1.75855915178571 7.48340290178571  1.8067734375 7.40681752232143  1.86294308035714 7.35091908482143  C 3.321515625 5.90403850446429  4.7831015625 4.46012611607143  6.24343694196429 3.01520424107143  C 6.27497209821429 2.98386495535714  6.30186662946429 2.94762890625  6.32772154017857 2.91776618303572  Z M 2.42561886160714 8.01071651785714  C 2.41095870535714 8.05448604910714  2.3995078125 8.08582533482143  2.39009095982143 8.11788783482143  C 2.26080133928571 8.55639676339286  2.14740736607143 9.00045033482143  1.99673772321429 9.43151618303571  C 1.91820870535714 9.65623995535714  1.93985993303571 9.81436774553572  2.13597154017857 9.94787611607143  C 2.17223772321429 9.97251060267857  2.203546875 10.0072700892857  2.23065234375 10.0423158482143  C 2.27339732142857 10.0982594866071  2.32114453125 10.0997963169643  2.38453125 10.0806160714286  C 2.74303459821429 9.97223939732143  3.10275837053571 9.86737332589286  3.46227120535714 9.76169363839286  C 3.64208035714286 9.70871819196429  3.82196484375 9.65625502232143  4.01446037946429 9.60011551339286  C 3.98438671875 9.56577790178572  3.96794866071429 9.53871763392857  3.94444419642857 9.52178236607143  C 3.79650167410714 9.41464118303572  3.73093024553571 9.27242410714286  3.74432477678572 9.08943582589286  C 3.74952287946429 9.02130301339286  3.74030189732143 8.95194977678572  3.73635435267857 8.88312388392857  C 3.72467745535714 8.69218024553572  3.71248828125 8.50123660714286  3.70004296875 8.30580301339286  C 3.43701897321429 8.28419698660714  3.18720870535714 8.25811607142857  2.93682589285714 8.24518861607143  C 2.75404854910714 8.23574162946429  2.58156194196429 8.21751060267857  2.46993080357143 8.04675669642857  C 2.46295479910714 8.03610435267857  2.44927399553572 8.02962555803572  2.42570926339286 8.01076171875  Z M 10.5453113839286 4.15681305803571  C 9.65256361607143 3.26533091517857  8.76153348214286 2.37531026785714  7.86083035714286 1.47579743303571  C 8.07738783482143 1.27887220982143  8.25192354910714 1.02113671875  8.53656863839286 0.883891741071428  C 8.87962834821429 0.718803013392857  9.30600837053571 0.796880022321428  9.61024051339286 1.09594419642857  C 10.0520641741071 1.53049051339286  10.4920797991071 1.96731194196429  10.9246674107143 2.41133537946429  C 11.3246350446429 2.82150334821429  11.3179151785714 3.37542522321429  10.9196953125 3.78560825892857  C 10.7951216517857 3.91366238839286  10.6661484375 4.03724162946428  10.54528125 4.15678292410714  Z M 10.18088671875 4.68436774553571  C 9.98030022321429 4.872328125  9.77193917410714 5.06721930803571  9.56853515625 5.25763560267857  C 8.63183705357143 4.3209375  7.70104520089285 3.39035658482143  6.76528125 2.45462276785714  C 6.97037276785714 2.26244363839286  7.17844754464286 2.06729631696429  7.37733147321428 1.88079743303571  C 8.31259821428571 2.81582310267857  9.24259151785714 3.74589174107143  10.18088671875 4.68435267857143  Z " fill-rule="nonzero" fill="#ffffff" stroke="none" transform="matrix(1 0 0 1 1957 16 )" />
  </g>
</svg>