<?xml version="1.0" encoding="utf-8"?>
<svg version="1.1" xmlns:xlink="http://www.w3.org/1999/xlink" width="12px" height="12px" viewBox="13 72  12 12" xmlns="http://www.w3.org/2000/svg">
  <path d="M 13.5 74  A 1.5 1.5 0 0 1 15 72.5 L 23 72.5  A 1.5 1.5 0 0 1 24.5 74 L 24.5 82  A 1.5 1.5 0 0 1 23 83.5 L 15 83.5  A 1.5 1.5 0 0 1 13.5 82 L 13.5 74  Z " fill-rule="nonzero" fill="#ffffff" stroke="none" />
  <path d="M 13.5 74  A 1.5 1.5 0 0 1 15 72.5 L 23 72.5  A 1.5 1.5 0 0 1 24.5 74 L 24.5 82  A 1.5 1.5 0 0 1 23 83.5 L 15 83.5  A 1.5 1.5 0 0 1 13.5 82 L 13.5 74  Z " stroke-width="1" stroke="#cccccc" fill="none" />
  <path d="M 15.5714285714286 78  L 18.1428571428571 80.5714285714286  " stroke-width="2.57142857142857" stroke="#cccccc" fill="none" />
  <path d="M 18.1428571428571 80.5714285714286  L 22.4285714285714 74.5714285714286  " stroke-width="2.57142857142857" stroke="#cccccc" fill="none" />
</svg>