<?xml version="1.0" encoding="utf-8"?>
<svg version="1.1" xmlns:xlink="http://www.w3.org/1999/xlink" width="12px" height="12px" viewBox="13 110  12 12" xmlns="http://www.w3.org/2000/svg">
  <path d="M 13.5 112  A 1.5 1.5 0 0 1 15 110.5 L 23 110.5  A 1.5 1.5 0 0 1 24.5 112 L 24.5 120  A 1.5 1.5 0 0 1 23 121.5 L 15 121.5  A 1.5 1.5 0 0 1 13.5 120 L 13.5 112  Z " fill-rule="nonzero" fill="#ffffff" stroke="none" />
  <path d="M 13.5 112  A 1.5 1.5 0 0 1 15 110.5 L 23 110.5  A 1.5 1.5 0 0 1 24.5 112 L 24.5 120  A 1.5 1.5 0 0 1 23 121.5 L 15 121.5  A 1.5 1.5 0 0 1 13.5 120 L 13.5 112  Z " stroke-width="1" stroke="#cccccc" fill="none" />
  <path d="M 15.5714285714286 116  L 18.1428571428571 118.571428571429  " stroke-width="2.57142857142857" stroke="#cccccc" fill="none" />
  <path d="M 18.1428571428571 118.571428571429  L 22.4285714285714 112.571428571429  " stroke-width="2.57142857142857" stroke="#cccccc" fill="none" />
</svg>