<?xml version="1.0" encoding="utf-8"?>
<svg version="1.1" xmlns:xlink="http://www.w3.org/1999/xlink" width="12px" height="12px" viewBox="13 148  12 12" xmlns="http://www.w3.org/2000/svg">
  <path d="M 13.5 150  A 1.5 1.5 0 0 1 15 148.5 L 23 148.5  A 1.5 1.5 0 0 1 24.5 150 L 24.5 158  A 1.5 1.5 0 0 1 23 159.5 L 15 159.5  A 1.5 1.5 0 0 1 13.5 158 L 13.5 150  Z " fill-rule="nonzero" fill="#ffffff" stroke="none" />
  <path d="M 13.5 150  A 1.5 1.5 0 0 1 15 148.5 L 23 148.5  A 1.5 1.5 0 0 1 24.5 150 L 24.5 158  A 1.5 1.5 0 0 1 23 159.5 L 15 159.5  A 1.5 1.5 0 0 1 13.5 158 L 13.5 150  Z " stroke-width="1" stroke="#cccccc" fill="none" />
</svg>