<?xml version="1.0" encoding="utf-8"?>
<svg version="1.1" xmlns:xlink="http://www.w3.org/1999/xlink" width="12px" height="12px" viewBox="13 186  12 12" xmlns="http://www.w3.org/2000/svg">
  <path d="M 13.5 188  A 1.5 1.5 0 0 1 15 186.5 L 23 186.5  A 1.5 1.5 0 0 1 24.5 188 L 24.5 196  A 1.5 1.5 0 0 1 23 197.5 L 15 197.5  A 1.5 1.5 0 0 1 13.5 196 L 13.5 188  Z " fill-rule="nonzero" fill="#ffffff" stroke="none" />
  <path d="M 13.5 188  A 1.5 1.5 0 0 1 15 186.5 L 23 186.5  A 1.5 1.5 0 0 1 24.5 188 L 24.5 196  A 1.5 1.5 0 0 1 23 197.5 L 15 197.5  A 1.5 1.5 0 0 1 13.5 196 L 13.5 188  Z " stroke-width="1" stroke="#cccccc" fill="none" />
  <path d="M 15.5714285714286 192  L 18.1428571428571 194.571428571429  " stroke-width="2.57142857142857" stroke="#cccccc" fill="none" />
  <path d="M 18.1428571428571 194.571428571429  L 22.4285714285714 188.571428571429  " stroke-width="2.57142857142857" stroke="#cccccc" fill="none" />
</svg>