<?xml version="1.0" encoding="utf-8"?>
<svg version="1.1" xmlns:xlink="http://www.w3.org/1999/xlink" width="12px" height="12px" viewBox="13 224  12 12" xmlns="http://www.w3.org/2000/svg">
  <path d="M 13.5 226  A 1.5 1.5 0 0 1 15 224.5 L 23 224.5  A 1.5 1.5 0 0 1 24.5 226 L 24.5 234  A 1.5 1.5 0 0 1 23 235.5 L 15 235.5  A 1.5 1.5 0 0 1 13.5 234 L 13.5 226  Z " fill-rule="nonzero" fill="#f0f0f0" stroke="none" />
  <path d="M 13.5 226  A 1.5 1.5 0 0 1 15 224.5 L 23 224.5  A 1.5 1.5 0 0 1 24.5 226 L 24.5 234  A 1.5 1.5 0 0 1 23 235.5 L 15 235.5  A 1.5 1.5 0 0 1 13.5 234 L 13.5 226  Z " stroke-width="1" stroke="#cccccc" fill="none" />
</svg>