<?xml version="1.0" encoding="utf-8"?>
<svg version="1.1" xmlns:xlink="http://www.w3.org/1999/xlink" width="12px" height="12px" viewBox="13 300  12 12" xmlns="http://www.w3.org/2000/svg">
  <path d="M 13.5 302  A 1.5 1.5 0 0 1 15 300.5 L 23 300.5  A 1.5 1.5 0 0 1 24.5 302 L 24.5 310  A 1.5 1.5 0 0 1 23 311.5 L 15 311.5  A 1.5 1.5 0 0 1 13.5 310 L 13.5 302  Z " fill-rule="nonzero" fill="#f0f0f0" stroke="none" />
  <path d="M 13.5 302  A 1.5 1.5 0 0 1 15 300.5 L 23 300.5  A 1.5 1.5 0 0 1 24.5 302 L 24.5 310  A 1.5 1.5 0 0 1 23 311.5 L 15 311.5  A 1.5 1.5 0 0 1 13.5 310 L 13.5 302  Z " stroke-width="1" stroke="#cccccc" fill="none" />
</svg>