<?xml version="1.0" encoding="utf-8"?>
<svg version="1.1" xmlns:xlink="http://www.w3.org/1999/xlink" width="12px" height="12px" viewBox="13 375  12 12" xmlns="http://www.w3.org/2000/svg">
  <path d="M 13.5 377  A 1.5 1.5 0 0 1 15 375.5 L 23 375.5  A 1.5 1.5 0 0 1 24.5 377 L 24.5 385  A 1.5 1.5 0 0 1 23 386.5 L 15 386.5  A 1.5 1.5 0 0 1 13.5 385 L 13.5 377  Z " fill-rule="nonzero" fill="#f0f0f0" stroke="none" />
  <path d="M 13.5 377  A 1.5 1.5 0 0 1 15 375.5 L 23 375.5  A 1.5 1.5 0 0 1 24.5 377 L 24.5 385  A 1.5 1.5 0 0 1 23 386.5 L 15 386.5  A 1.5 1.5 0 0 1 13.5 385 L 13.5 377  Z " stroke-width="1" stroke="#cccccc" fill="none" />
  <path d="M 15.5714285714286 381  L 18.1428571428571 383.571428571429  " stroke-width="2.57142857142857" stroke="#cccccc" fill="none" />
  <path d="M 18.1428571428571 383.571428571429  L 22.4285714285714 377.571428571429  " stroke-width="2.57142857142857" stroke="#cccccc" fill="none" />
</svg>