<?xml version="1.0" encoding="utf-8"?>
<svg version="1.1" xmlns:xlink="http://www.w3.org/1999/xlink" width="12px" height="12px" viewBox="13 413  12 12" xmlns="http://www.w3.org/2000/svg">
  <path d="M 13.5 415  A 1.5 1.5 0 0 1 15 413.5 L 23 413.5  A 1.5 1.5 0 0 1 24.5 415 L 24.5 423  A 1.5 1.5 0 0 1 23 424.5 L 15 424.5  A 1.5 1.5 0 0 1 13.5 423 L 13.5 415  Z " fill-rule="nonzero" fill="#ffffff" stroke="none" />
  <path d="M 13.5 415  A 1.5 1.5 0 0 1 15 413.5 L 23 413.5  A 1.5 1.5 0 0 1 24.5 415 L 24.5 423  A 1.5 1.5 0 0 1 23 424.5 L 15 424.5  A 1.5 1.5 0 0 1 13.5 423 L 13.5 415  Z " stroke-width="1" stroke="#cccccc" fill="none" />
  <path d="M 15.5714285714286 419  L 18.1428571428571 421.571428571429  " stroke-width="2.57142857142857" stroke="#cccccc" fill="none" />
  <path d="M 18.1428571428571 421.571428571429  L 22.4285714285714 415.571428571429  " stroke-width="2.57142857142857" stroke="#cccccc" fill="none" />
</svg>