<?xml version="1.0" encoding="utf-8"?>
<svg version="1.1" xmlns:xlink="http://www.w3.org/1999/xlink" width="12px" height="12px" viewBox="13 451  12 12" xmlns="http://www.w3.org/2000/svg">
  <path d="M 13.5 453  A 1.5 1.5 0 0 1 15 451.5 L 23 451.5  A 1.5 1.5 0 0 1 24.5 453 L 24.5 461  A 1.5 1.5 0 0 1 23 462.5 L 15 462.5  A 1.5 1.5 0 0 1 13.5 461 L 13.5 453  Z " fill-rule="nonzero" fill="#ffffff" stroke="none" />
  <path d="M 13.5 453  A 1.5 1.5 0 0 1 15 451.5 L 23 451.5  A 1.5 1.5 0 0 1 24.5 453 L 24.5 461  A 1.5 1.5 0 0 1 23 462.5 L 15 462.5  A 1.5 1.5 0 0 1 13.5 461 L 13.5 453  Z " stroke-width="1" stroke="#cccccc" fill="none" />
  <path d="M 15.5714285714286 457  L 18.1428571428571 459.571428571429  " stroke-width="2.57142857142857" stroke="#cccccc" fill="none" />
  <path d="M 18.1428571428571 459.571428571429  L 22.4285714285714 453.571428571429  " stroke-width="2.57142857142857" stroke="#cccccc" fill="none" />
</svg>