<?xml version="1.0" encoding="utf-8"?>
<svg version="1.1" xmlns:xlink="http://www.w3.org/1999/xlink" width="12px" height="12px" viewBox="13 489  12 12" xmlns="http://www.w3.org/2000/svg">
  <path d="M 13.5 491  A 1.5 1.5 0 0 1 15 489.5 L 23 489.5  A 1.5 1.5 0 0 1 24.5 491 L 24.5 499  A 1.5 1.5 0 0 1 23 500.5 L 15 500.5  A 1.5 1.5 0 0 1 13.5 499 L 13.5 491  Z " fill-rule="nonzero" fill="#f0f0f0" stroke="none" />
  <path d="M 13.5 491  A 1.5 1.5 0 0 1 15 489.5 L 23 489.5  A 1.5 1.5 0 0 1 24.5 491 L 24.5 499  A 1.5 1.5 0 0 1 23 500.5 L 15 500.5  A 1.5 1.5 0 0 1 13.5 499 L 13.5 491  Z " stroke-width="1" stroke="#cccccc" fill="none" />
  <path d="M 15.5714285714286 495  L 18.1428571428571 497.571428571429  " stroke-width="2.57142857142857" stroke="#cccccc" fill="none" />
  <path d="M 18.1428571428571 497.571428571429  L 22.4285714285714 491.571428571429  " stroke-width="2.57142857142857" stroke="#cccccc" fill="none" />
</svg>