<?xml version="1.0" encoding="utf-8"?>
<svg version="1.1" xmlns:xlink="http://www.w3.org/1999/xlink" width="15px" height="15px" xmlns="http://www.w3.org/2000/svg">
  <g transform="matrix(1 0 0 1 -57 -116 )">
    <path d="M 14.9042518598272 6.75219084712756  L 12.1934436818377 3.38704965920156  C 11.9130152496319 3.01314508276534  11.3521583852203 3.01314508276534  11.0717299530145 3.38704965920156  L 8.36092177502503 6.75219084712756  C 8.17396948688782 7.03261927945472  8.36092177502503 7.40652385589094  8.64135020723083 7.40652385589094  L 9.66958779198547 7.40652385589094  C 9.66958779198547 9.36952288218111  9.66958779198547 11.8933787731256  6.11749431737856 13.9498539435248  C 6.02401817330996 14.0433300876339  6.11749431737856 14.1368062317429  6.21097046144716 14.1368062317429  C 12.847776690318 13.1085686465433  13.4086335547296 8.62171372930867  13.4086335547296 7.40652385589094  L 14.5303472835528 7.40652385589094  C 14.9042518598272 7.40652385589094  15.0912041479644 7.03261927945472  14.9042518598272 6.75219084712756  Z M 6.39792274958437 7.59347614410906  L 5.27620902076113 7.59347614410906  C 5.27620902076113 5.63047711781889  5.27620902076113 3.10662122687439  8.82830249536804 1.05014605647517  C 8.92177863943664 0.956669912366114  8.82830249536804 0.863193768257059  8.73482635129944 0.863193768257059  C 2.09802012242864 1.89143135345667  1.53716325801702 6.37828627069133  1.53716325801702 7.59347614410906  L 0.41544952919379 7.59347614410906  C 0.041544952919379 7.59347614410906  -0.145407335217827 7.96738072054528  0.135021096987982 8.24780915287245  L 2.84582927497746 11.6129503407984  C 3.12625770718327 11.9868549172347  3.68711457159489 11.9868549172347  3.9675430038007 11.6129503407984  L 6.67835118179018 8.24780915287245  C 6.86530346992738 7.96738072054528  6.67835118179018 7.59347614410906  6.39792274958437 7.59347614410906  Z " fill-rule="nonzero" fill="#ffffff" stroke="none" fill-opacity="0.968627450980392" transform="matrix(1 0 0 1 57 116 )" />
  </g>
</svg>