<?xml version="1.0" encoding="utf-8"?>
<svg version="1.1" xmlns:xlink="http://www.w3.org/1999/xlink" width="14px" height="11px" xmlns="http://www.w3.org/2000/svg">
  <g transform="matrix(1 0 0 1 -96 -118 )">
    <path d="M 4.89025577613178 6.16069128909552  L 1.75945347826998 9.18828056635672  C 1.8100517530723 9.19780212172443  1.86256455656776 9.20282738292477  1.91617136959117 9.20282738292477  L 11.2120312997388 9.20282738292477  C 11.2735697371283 9.20282738292477  11.3337406553963 9.19621519273035  11.3914500353996 9.18404876500423  L 8.30386139754565 6.19798403212172  L 7.38816941303586 7.08375292307692  C 7.18351116347522 7.28168465282639  6.9059223235821 7.39288325914104  6.61647690529892 7.39288325914104  C 6.32662960212434 7.39288325914104  6.0486893250483 7.28137651375872  5.84396484414169 7.08295946322908  L 4.89025577613178 6.16069128909552  Z M 1.09401781991344 2.58958004480135  L 1.09401781991344 8.33557261707523  L 4.11678597256322 5.41245593744717  L 1.1000349155864 2.49542246238377  C 1.09611585633706 2.5266665558504  1.09410666608614 2.55810705587326  1.09401781991344 2.58958004480135  Z M 12.0341848494165 8.30912386559594  L 12.0341848494165 2.59116696449704  L 9.07760471070774 5.45027765680473  L 12.0341848494165 8.30938834911243  Z M 1.92547051307875 1.7971752671175  L 6.42352019205414 6.1472024158918  C 6.52854579904506 6.24850115553677  6.70276795819807 6.25035256804734  6.80916107469508 6.1472024158918  L 11.3028346867125 1.80193603550296  C 11.2726797632195 1.79874370484315  11.2423663718702 1.79715439149261  11.2120312997388 1.7971752671175  L 1.92519701310061 1.7971752671175  Z M 0 8.67252979628064  L 0 2.32747285376162  C 0 1.44995216046439  0.734957759652542 0.739224604222774  1.64157297475329 0.739224604222774  C 1.64193771624645 0.739224604222774  1.64230245772993 0.739224721778277  1.64266719914206 0.739224956889264  L 11.4855354701879 0.739224956889264  C 11.4862651888435 0.739224015208553  11.4869949080667 0.739223544368042  11.487724627372 0.739223544368042  C 12.3937356323839 0.739223544368042  13.1282026693412 1.4494774390686  13.1282026693412 2.32562001943144  C 13.1282026693412 2.32623763103122  13.1282022963753 2.32685524258309  13.1282015504438 2.32747285376162  L 13.1282015504438 8.67252979628064  C 13.1282017556844 9.55005048027948  12.3932449096726 10.2607780365211  11.4866296945719 10.2607780365211  C 11.4862649530808 10.2607780365211  11.485900211598 10.2607779189656  11.4855354701879 10.2607776838546  L 1.64266719914206 10.2607776838546  C 1.64193748049036 10.2607786255353  1.64120776127062 10.2607790963758  1.64047804196918 10.2607790963758  C 0.734467036957322 10.2607790963758  0 9.55052520167526  0 8.67438262131242  C 0 8.6737650128104  0 8.67314740436142  0 8.67252979628064  Z " fill-rule="nonzero" fill="#ffffff" stroke="none" transform="matrix(1 0 0 1 96 118 )" />
  </g>
</svg>