<?xml version="1.0" encoding="utf-8"?>
<svg version="1.1" xmlns:xlink="http://www.w3.org/1999/xlink" width="15px" height="12px" xmlns="http://www.w3.org/2000/svg">
  <g transform="matrix(1 0 0 1 -271 -96 )">
    <path d="M 0.326598984962406 1  L 0.326598984962406 0.32403365131579  L 10.3603951315789 0.32403365131579  L 10.3603951315789 1  L 0.326598984962406 1  Z M 0.419001221804511 3.14909623590226  L 0.419001221804511 2.39493090225564  L 8.10469340225564 2.39493090225564  L 8.10469340225564 3.14909623590226  L 0.419001221804511 3.14909623590226  Z M 0.489661766917293 5.21591692669173  L 0.489661766917293 4.46175159304511  L 6.1914234962406 4.46175159304511  L 6.1914234962406 5.21591692669173  L 0.489661766917293 5.21591692669173  Z M 8.98523238721805 8.29372681860902  L 9.58856466165414 8.2896502443609  L 11.4366094548872 11.7139685385338  L 7.89814721804511 11.7139685385338  L 7.89814721804511 9.16203610432331  C 7.87983933367575 8.69745820190444  8.36587003399751 8.30924117696547  8.98523238721805 8.29372681860902  Z M 13.8553739473684 8.2896502443609  C 14.4726238994118 8.30951685739968  14.9530487855226 8.69895218486198  14.9315882706767 9.16203610432331  L 14.9315882706767 11.7139685385338  L 11.4366094548872 11.7139685385338  L 13.4803295676692 8.2896502443609  L 13.8553739473684 8.2896502443609  Z " fill-rule="nonzero" fill="#000000" stroke="none" transform="matrix(1 0 0 1 271 96 )" />
  </g>
</svg>