<?xml version="1.0" encoding="utf-8"?>
<svg version="1.1" xmlns:xlink="http://www.w3.org/1999/xlink" width="19px" height="15px" xmlns="http://www.w3.org/2000/svg">
  <g transform="matrix(1 0 0 1 -267 -93 )">
    <path d="M 10.2512131766917 13.8945781015038  L 10.2675194548872 14.7098919783835  L 1.57083808270677 14.7098919783835  C 1.54504860808728 14.7108953216796  1.51922879532242 14.7113972460571  1.49340464604169 14.7113972460571  C 0.692470129289733 14.7113972460571  0.0338744285744122 14.2379176148079  0 13.6377542199248  L 0 1.35505062969925  C 0.0352844568922877 0.737299519489659  0.73079863369439 0.257613611151444  1.55453180451128 0.282912885338346  L 17.3933627631579 0.282912885338346  C 18.2170959267736 0.25761361914761  18.9126100918827 0.73729952522154  18.9478945488722 1.35505062969925  L 18.9478945488722 9.01084796052632  L 17.8608093796992 9.01084796052632  L 17.8608093796992 1.35505062969925  C 17.8608093796992 1.21644727443609  17.6488277631579 1.09822676221805  17.3933627631579 1  L 1.55453180451128 1  C 1.29906678571429 1.09822676221805  1.08708518796992 1.21644727443609  1 1.35505062969925  L 1 13.6377542199248  C 1.08708516917293 13.776357575188  1.29906678571429 13.894578087406  1.55453180451128 13.8945781015038  L 10.2512131766917 13.8945781015038  Z " fill-rule="nonzero" fill="#000000" stroke="none" transform="matrix(1 0 0 1 267 93 )" />
  </g>
</svg>