<?xml version="1.0" encoding="utf-8"?>
<svg version="1.1" xmlns:xlink="http://www.w3.org/1999/xlink" width="10px" height="18px" xmlns="http://www.w3.org/2000/svg">
  <g transform="matrix(1 0 0 1 -272 -122 )">
    <path d="M 7.62125 4.059  C 7.56305045410821 4.31623751487803  7.33486279064158 4.4991609588022  7.071125 4.5  L 2.928875 4.5  C 2.66477537562627 4.49977981042831  2.43639224746899 4.31585651254754  2.379875 4.057875  L 1.6385 0.682875  C 1.62983789786 0.643335661012811  1.62546889113502 0.60297685165862  1.62546889113502 0.562499804569836  C 1.62546889113502 0.252022730387211  1.87702303368686 0.000258808795931672  2.1875 0  L 7.8125 0  C 8.12366298992606 0.00104168996835937  8.37535937954671 0.253582101794532  8.37535937954671 0.564746835364574  C 8.37535937954671 0.604837205225241  8.37109052187214 0.644813615948937  8.362625 0.684  L 7.62125 4.059  Z M 2.88725 1.125  L 3.381125 3.375  L 6.61775 3.375  L 7.111625 1.125  L 2.88725 1.125  Z M 5.414 17.81775  C 5.30766479352388 17.9338702130827  5.15745183393957 17.999996570291  5 18  C 4.84227274180267 17.9997591645399  4.69180336035553 17.9336994360997  4.584875 17.81775  L 0.647375 13.521375  C 0.524621878396292 13.3867501641302  0.474353362770121 13.2011755606103  0.512375 13.023  L 2.0165 6.069375  C 2.07219228317772 5.81008721647617  2.30142360705656 5.62492080966197  2.566625 5.625  L 7.433375 5.625  C 7.69815444701041 5.62545057501511  7.92677161899116 5.81049931053232  7.982375 6.069375  L 9.4865 13.023  C 9.52549277337319 13.2012006708747  9.47510415749676 13.3872186444851  9.3515 13.521375  L 5.414 17.81775  Z M 3.02 6.75  L 1.673375 12.974625  L 5 16.605  L 8.326625 12.974625  L 6.98 6.75  L 3.02 6.75  Z " fill-rule="nonzero" fill="#000000" stroke="none" transform="matrix(1 0 0 1 272 122 )" />
  </g>
</svg>