<?xml version="1.0" encoding="utf-8"?>
<svg version="1.1" xmlns:xlink="http://www.w3.org/1999/xlink" width="6px" height="11px" xmlns="http://www.w3.org/2000/svg">
  <g transform="matrix(1 0 0 1 -277 -180 )">
    <path d="M 4.85341796875 10.57216796875  C 4.72314453125 10.7046875  4.5501953125 10.76982421875  4.37724609375 10.76982421875  C 4.204296875 10.76982421875  4.03359375 10.7046875  3.90107421875 10.57216796875  L 1.02607421875 7.6994140625  C 0.90029296875 7.5736328125  0.828417968749999 7.40068359375  0.828417968749999 7.2232421875  L 0.828417968749999 1.46875  C 0.828417968749999 1.0958984375  1.12939453125 0.794921875  1.50224609375 0.794921875  C 1.87509765625 0.794921875  2.17607421875 1.0958984375  2.17607421875 1.46875  L 2.17607421875 6.9447265625  L 4.85341796875 9.61982421875  C 5.1162109375 9.8826171875  5.1162109375 10.309375  4.85341796875 10.57216796875  Z " fill-rule="nonzero" fill="#515151" stroke="none" transform="matrix(1 0 0 1 277 180 )" />
  </g>
</svg>