<?xml version="1.0" encoding="utf-8"?>
<svg version="1.1" xmlns:xlink="http://www.w3.org/1999/xlink" width="18px" height="16px" xmlns="http://www.w3.org/2000/svg">
  <g transform="matrix(1 0 0 1 -269 -150 )">
    <path d="M 9.6234375 8.87890625  C 9.6234375 9.029296875  9.74296875 9.12890625  9.9234375 9.12890625  L 11.1234375 9.12890625  C 11.30390625 9.12890625  11.4234375 9.029296875  11.4234375 8.87890625  L 11.4234375 7.87890625  C 11.4234375 7.728515625  11.30390625 7.62890625  11.1234375 7.62890625  L 9.9234375 7.62890625  C 9.74296875 7.62890625  9.6234375 7.728515625  9.6234375 7.87890625  L 9.6234375 8.87890625  Z M 12.6234375 8.87890625  C 12.6234375 9.029296875  12.74296875 9.12890625  12.9234375 9.12890625  L 14.1234375 9.12890625  C 14.30390625 9.12890625  14.4234375 9.029296875  14.4234375 8.87890625  L 14.4234375 7.87890625  C 14.4234375 7.728515625  14.30390625 7.62890625  14.1234375 7.62890625  L 12.9234375 7.62890625  C 12.74296875 7.62890625  12.6234375 7.728515625  12.6234375 7.87890625  L 12.6234375 8.87890625  Z M 6.6234375 8.87890625  C 6.6234375 9.029296875  6.74296875 9.12890625  6.9234375 9.12890625  L 8.1234375 9.12890625  C 8.30390625 9.12890625  8.4234375 9.029296875  8.4234375 8.87890625  L 8.4234375 7.87890625  C 8.4234375 7.728515625  8.30390625 7.62890625  8.1234375 7.62890625  L 6.9234375 7.62890625  C 6.74296875 7.62890625  6.6234375 7.728515625  6.6234375 7.87890625  L 6.6234375 8.87890625  Z M 12.6234375 12.43359375  C 12.6234375 12.583984375  12.74296875 12.68359375  12.9234375 12.68359375  L 14.1234375 12.68359375  C 14.30390625 12.68359375  14.4234375 12.583984375  14.4234375 12.43359375  L 14.4234375 11.43359375  C 14.4234375 11.283203125  14.30390625 11.18359375  14.1234375 11.18359375  L 12.9234375 11.18359375  C 12.74296875 11.18359375  12.6234375 11.283203125  12.6234375 11.43359375  L 12.6234375 12.43359375  Z M 9.6234375 12.43359375  C 9.6234375 12.583984375  9.74296875 12.68359375  9.9234375 12.68359375  L 11.1234375 12.68359375  C 11.30390625 12.68359375  11.4234375 12.583984375  11.4234375 12.43359375  L 11.4234375 11.43359375  C 11.4234375 11.283203125  11.30390625 11.18359375  11.1234375 11.18359375  L 9.9234375 11.18359375  C 9.74296875 11.18359375  9.6234375 11.283203125  9.6234375 11.43359375  L 9.6234375 12.43359375  Z M 3.6234375 12.43359375  C 3.6234375 12.583984375  3.74296875 12.68359375  3.9234375 12.68359375  L 5.1234375 12.68359375  C 5.30390625 12.68359375  5.4234375 12.583984375  5.4234375 12.43359375  L 5.4234375 11.43359375  C 5.4234375 11.283203125  5.30390625 11.18359375  5.1234375 11.18359375  L 3.9234375 11.18359375  C 3.74296875 11.18359375  3.6234375 11.283203125  3.6234375 11.43359375  L 3.6234375 12.43359375  Z M 3.6234375 8.87890625  C 3.6234375 9.029296875  3.74296875 9.12890625  3.9234375 9.12890625  L 5.1234375 9.12890625  C 5.30390625 9.12890625  5.4234375 9.029296875  5.4234375 8.87890625  L 5.4234375 7.87890625  C 5.4234375 7.728515625  5.30390625 7.62890625  5.1234375 7.62890625  L 3.9234375 7.62890625  C 3.74296875 7.62890625  3.6234375 7.728515625  3.6234375 7.87890625  L 3.6234375 8.87890625  Z M 6.6234375 12.43359375  C 6.6234375 12.583984375  6.74296875 12.68359375  6.9234375 12.68359375  L 8.1234375 12.68359375  C 8.30390625 12.68359375  8.4234375 12.583984375  8.4234375 12.43359375  L 8.4234375 11.43359375  C 8.4234375 11.283203125  8.30390625 11.18359375  8.1234375 11.18359375  L 6.9234375 11.18359375  C 6.74296875 11.18359375  6.6234375 11.283203125  6.6234375 11.43359375  L 6.6234375 12.43359375  Z M 18 13.83984375  C 17.9296875 14.80859375  16.9828125 15.59765625  15.8203125 15.59765625  L 2.1328125 15.59765625  C 0.9703125 15.59765625  0.0234375 14.80859375  0 13.83984375  L 0 3.078125  C 0.0234375 2.109375  0.9703125 1.3203125  2.1328125 1.3203125  L 15.8203125 1.3203125  C 16.9828125 1.3203125  17.9296875 2.109375  18 3.078125  L 18 13.83984375  Z M 15.8203125 2.4921875  L 2.1328125 2.4921875  C 1.74609375 2.4921875  1.4296875 2.755859375  1.4296875 3.078125  L 1.4296875 13.83984375  C 1.4296875 14.162109375  1.74609375 14.42578125  2.1328125 14.42578125  L 15.8203125 14.42578125  C 16.20703125 14.42578125  16.5234375 14.162109375  16.5234375 13.83984375  L 16.5234375 3.078125  C 16.5234375 2.755859375  16.20703125 2.4921875  15.8203125 2.4921875  Z M 1.1484375 6  L 1.1484375 4.58203125  L 16.8046875 4.58203125  L 16.8046875 6  L 1.1484375 6  Z M 5.71875 2.8046875  C 5.71875 3.12890625  5.4046875 3.390625  5.015625 3.390625  C 4.6265625 3.390625  4.3125 3.12890625  4.3125 2.8046875  L 4.3125 1.02734375  C 4.3125 0.703125  4.6265625 0.44140625  5.015625 0.44140625  C 5.4046875 0.44140625  5.71875 0.703125  5.71875 1.02734375  L 5.71875 2.8046875  Z M 13.2890625 2.8046875  C 13.2890625 3.12890625  12.975 3.390625  12.5859375 3.390625  C 12.196875 3.390625  11.8828125 3.12890625  11.8828125 2.8046875  L 11.8828125 1.02734375  C 11.8828125 0.703125  12.196875 0.44140625  12.5859375 0.44140625  C 12.975 0.44140625  13.2890625 0.703125  13.2890625 1.02734375  L 13.2890625 2.8046875  Z " fill-rule="nonzero" fill="#000000" stroke="none" transform="matrix(1 0 0 1 269 150 )" />
  </g>
</svg>