<?xml version="1.0" encoding="utf-8"?>
<svg version="1.1" xmlns:xlink="http://www.w3.org/1999/xlink" width="19px" height="19px" xmlns="http://www.w3.org/2000/svg">
  <g transform="matrix(1 0 0 1 -269 -177 )">
    <path d="M 13.10498046875 18.080078125  C 11.95947265625 18.56298828125  10.73984375 18.81005859375  9.48427734375 18.81005859375  C 8.2287109375 18.81005859375  7.00908203125 18.56298828125  5.86357421875 18.07783203125  C 4.75625 17.6083984375  3.76123046875 16.9390625  2.90546875 16.08330078125  C 2.051953125 15.22978515625  1.38037109375 14.234765625  0.910937500000001 13.1251953125  C 0.42578125 11.97744140625  0.1787109375 10.76005859375  0.1787109375 9.5044921875  C 0.1787109375 8.24892578125  0.42578125 7.029296875  0.9109375 5.8837890625  C 1.38037109375 4.77646484375  2.04970703125 3.7814453125  2.90546875 2.92568359375  C 3.758984375 2.07216796875  4.75400390625 1.4005859375  5.86357421875 0.93115234375  C 7.011328125 0.44599609375  8.2287109375 0.201171875  9.48427734375 0.201171875  C 10.73984375 0.201171875  11.95947265625 0.4482421875  13.10498046875 0.9333984375  C 14.2123046875 1.40283203125  15.20732421875 2.07216796875  16.0630859375 2.9279296875  C 16.9166015625 3.7814453125  17.58818359375 4.77646484375  18.0576171875 5.88603515625  C 18.5427734375 7.0337890625  18.78984375 8.251171875  18.78984375 9.50673828125  C 18.78984375 10.7623046875  18.5427734375 11.98193359375  18.0576171875 13.12744140625  C 17.58818359375 14.234765625  16.91884765625 15.22978515625  16.0630859375 16.085546875  C 15.20732421875 16.94130859375  14.21455078125 17.61064453125  13.10498046875 18.080078125  Z M 17.43994140625 9.50673828125  C 17.43994140625 5.1201171875  13.87314453125 1.548828125  9.48427734375 1.548828125  C 5.09765625 1.548828125  1.52861328125 5.11787109375  1.52861328125 9.5044921875  C 1.52861328125 13.89111328125  5.09765625 17.46240234375  9.48427734375 17.46240234375  C 13.8708984375 17.46240234375  17.43994140625 13.893359375  17.43994140625 9.50673828125  Z " fill-rule="nonzero" fill="#515151" stroke="none" transform="matrix(1 0 0 1 269 177 )" />
  </g>
</svg>