<?xml version="1.0" encoding="utf-8"?>
<svg version="1.1" xmlns:xlink="http://www.w3.org/1999/xlink" width="25px" height="25px" xmlns="http://www.w3.org/2000/svg">
  <g transform="matrix(1 0 0 1 -22 -34 )">
    <path d="M 1.659375 11.06796875  L 4.9109375 9.6484375  L 1.6734375 8.234375  C 1.10452962252479 7.98563452949943  0.736885877144321 7.42364338179423  0.736885877144321 6.802734375  C 0.736885877144321 6.18182536820577  1.10452962252479 5.61983422050057  1.6734375 5.37109375  L 11.88203125 0.9140625  C 12.2805475989123 0.7401357062316  12.7335149010877 0.7401357062316  13.13203125 0.9140625  L 23.340625 5.37109375  C 23.9100126995648 5.61962056899121  24.2780708031311 6.18186182535211  24.2780708031311 6.803125  C 24.2780708031311 7.42438817464789  23.9100126995648 7.98662943100879  23.340625 8.23515625  L 20.0890625 9.6546875  L 23.3265625 11.06875  C 23.8954703774752 11.3174904705006  24.2631141228557 11.8794816182058  24.2631141228557 12.500390625  C 24.2631141228557 13.1212996317942  23.8954703774752 13.6832907794994  23.3265625 13.93203125  L 20.0890625 15.34609375  L 23.340625 16.76484375  C 23.9100126995648 17.0133705689912  24.2780708031311 17.5756118253521  24.2780708031311 18.196875  C 24.2780708031311 18.8181381746479  23.9100126995648 19.3803794310088  23.340625 19.62890625  L 13.1328125 24.0859375  C 12.7342961510877 24.2598642937684  12.2813288489123 24.2598642937684  11.8828125 24.0859375  L 1.6734375 19.62890625  C 1.10404980043521 19.3803794310088  0.735991696868909 18.8181381746479  0.735991696868909 18.196875  C 0.735991696868909 17.5756118253521  1.10404980043521 17.0133705689912  1.6734375 16.76484375  L 4.9109375 15.3515625  L 1.659375 13.93203125  C 1.08998730043521 13.6835044310088  0.721929196868909 13.1212631746479  0.721929196868909 12.5  C 0.721929196868909 11.8787368253521  1.08998730043521 11.3164955689912  1.659375 11.06796875  Z M 13.13125 18.446875  L 13.13203125 18.4453125  C 12.7335149010877 18.6192392937684  12.2805475989123 18.6192392937684  11.88203125 18.4453125  L 6.8046875 16.23046875  L 2.29765625 18.19765625  L 12.50625 22.6546875  L 22.71484375 18.19765625  L 18.20859375 16.23046875  L 13.13125 18.446875  Z M 18.19453125 10.5328125  L 13.11796875 12.7484375  C 12.7194524010877 12.9223642937684  12.2664850989123 12.9223642937684  11.86796875 12.7484375  L 6.790625 10.5328125  L 2.284375 12.5  L 12.49296875 16.95703125  L 22.7015625 12.5  L 18.19453125 10.5328125  Z M 22.715625 6.803125  L 12.5078125 2.34609375  L 2.2984375 6.803125  L 12.50703125 11.259375  L 22.715625 6.803125  Z " fill-rule="nonzero" fill="#6db773" stroke="none" transform="matrix(1 0 0 1 22 34 )" />
  </g>
</svg>