<?xml version="1.0" encoding="utf-8"?>
<svg version="1.1" xmlns:xlink="http://www.w3.org/1999/xlink" width="12px" height="12px" viewBox="38 225  12 12" xmlns="http://www.w3.org/2000/svg">
  <path d="M 38.5 227  A 1.5 1.5 0 0 1 40 225.5 L 48 225.5  A 1.5 1.5 0 0 1 49.5 227 L 49.5 235  A 1.5 1.5 0 0 1 48 236.5 L 40 236.5  A 1.5 1.5 0 0 1 38.5 235 L 38.5 227  Z " fill-rule="nonzero" fill="#f0f0f0" stroke="none" />
  <path d="M 38.5 227  A 1.5 1.5 0 0 1 40 225.5 L 48 225.5  A 1.5 1.5 0 0 1 49.5 227 L 49.5 235  A 1.5 1.5 0 0 1 48 236.5 L 40 236.5  A 1.5 1.5 0 0 1 38.5 235 L 38.5 227  Z " stroke-width="1" stroke="#cccccc" fill="none" />
</svg>