<?xml version="1.0" encoding="utf-8"?>
<svg version="1.1" xmlns:xlink="http://www.w3.org/1999/xlink" width="12px" height="12px" viewBox="38 369  12 12" xmlns="http://www.w3.org/2000/svg">
  <path d="M 38.5 371  A 1.5 1.5 0 0 1 40 369.5 L 48 369.5  A 1.5 1.5 0 0 1 49.5 371 L 49.5 379  A 1.5 1.5 0 0 1 48 380.5 L 40 380.5  A 1.5 1.5 0 0 1 38.5 379 L 38.5 371  Z " fill-rule="nonzero" fill="#f0f0f0" stroke="none" />
  <path d="M 38.5 371  A 1.5 1.5 0 0 1 40 369.5 L 48 369.5  A 1.5 1.5 0 0 1 49.5 371 L 49.5 379  A 1.5 1.5 0 0 1 48 380.5 L 40 380.5  A 1.5 1.5 0 0 1 38.5 379 L 38.5 371  Z " stroke-width="1" stroke="#cccccc" fill="none" />
</svg>