<?xml version="1.0" encoding="utf-8"?>
<svg version="1.1" xmlns:xlink="http://www.w3.org/1999/xlink" width="12px" height="12px" viewBox="38 584  12 12" xmlns="http://www.w3.org/2000/svg">
  <path d="M 38.5 586  A 1.5 1.5 0 0 1 40 584.5 L 48 584.5  A 1.5 1.5 0 0 1 49.5 586 L 49.5 594  A 1.5 1.5 0 0 1 48 595.5 L 40 595.5  A 1.5 1.5 0 0 1 38.5 594 L 38.5 586  Z " fill-rule="nonzero" fill="#ffffff" stroke="none" />
  <path d="M 38.5 586  A 1.5 1.5 0 0 1 40 584.5 L 48 584.5  A 1.5 1.5 0 0 1 49.5 586 L 49.5 594  A 1.5 1.5 0 0 1 48 595.5 L 40 595.5  A 1.5 1.5 0 0 1 38.5 594 L 38.5 586  Z " stroke-width="1" stroke="#cccccc" fill="none" />
  <path d="M 40.5714285714286 590  L 43.1428571428571 592.571428571429  " stroke-width="2.57142857142857" stroke="#cccccc" fill="none" />
  <path d="M 43.1428571428571 592.571428571429  L 47.4285714285714 586.571428571429  " stroke-width="2.57142857142857" stroke="#cccccc" fill="none" />
</svg>