<?xml version="1.0" encoding="utf-8"?>
<svg version="1.1" xmlns:xlink="http://www.w3.org/1999/xlink" width="12px" height="12px" viewBox="38 476  12 12" xmlns="http://www.w3.org/2000/svg">
  <path d="M 38.5 478  A 1.5 1.5 0 0 1 40 476.5 L 48 476.5  A 1.5 1.5 0 0 1 49.5 478 L 49.5 486  A 1.5 1.5 0 0 1 48 487.5 L 40 487.5  A 1.5 1.5 0 0 1 38.5 486 L 38.5 478  Z " fill-rule="nonzero" fill="#ffffff" stroke="none" />
  <path d="M 38.5 478  A 1.5 1.5 0 0 1 40 476.5 L 48 476.5  A 1.5 1.5 0 0 1 49.5 478 L 49.5 486  A 1.5 1.5 0 0 1 48 487.5 L 40 487.5  A 1.5 1.5 0 0 1 38.5 486 L 38.5 478  Z " stroke-width="1" stroke="#cccccc" fill="none" />
</svg>