<?xml version="1.0" encoding="utf-8"?>
<svg version="1.1" xmlns:xlink="http://www.w3.org/1999/xlink" width="12px" height="12px" viewBox="38 548  12 12" xmlns="http://www.w3.org/2000/svg">
  <path d="M 38.5 550  A 1.5 1.5 0 0 1 40 548.5 L 48 548.5  A 1.5 1.5 0 0 1 49.5 550 L 49.5 558  A 1.5 1.5 0 0 1 48 559.5 L 40 559.5  A 1.5 1.5 0 0 1 38.5 558 L 38.5 550  Z " fill-rule="nonzero" fill="#f0f0f0" stroke="none" />
  <path d="M 38.5 550  A 1.5 1.5 0 0 1 40 548.5 L 48 548.5  A 1.5 1.5 0 0 1 49.5 550 L 49.5 558  A 1.5 1.5 0 0 1 48 559.5 L 40 559.5  A 1.5 1.5 0 0 1 38.5 558 L 38.5 550  Z " stroke-width="1" stroke="#cccccc" fill="none" />
  <path d="M 40.5714285714286 554  L 43.1428571428571 556.571428571429  " stroke-width="2.57142857142857" stroke="#cccccc" fill="none" />
  <path d="M 43.1428571428571 556.571428571429  L 47.4285714285714 550.571428571429  " stroke-width="2.57142857142857" stroke="#cccccc" fill="none" />
</svg>