<?xml version="1.0" encoding="utf-8"?>
<svg version="1.1" xmlns:xlink="http://www.w3.org/1999/xlink" width="12px" height="12px" viewBox="38 440  12 12" xmlns="http://www.w3.org/2000/svg">
  <path d="M 38.5 442  A 1.5 1.5 0 0 1 40 440.5 L 48 440.5  A 1.5 1.5 0 0 1 49.5 442 L 49.5 450  A 1.5 1.5 0 0 1 48 451.5 L 40 451.5  A 1.5 1.5 0 0 1 38.5 450 L 38.5 442  Z " fill-rule="nonzero" fill="#ffffff" stroke="none" />
  <path d="M 38.5 442  A 1.5 1.5 0 0 1 40 440.5 L 48 440.5  A 1.5 1.5 0 0 1 49.5 442 L 49.5 450  A 1.5 1.5 0 0 1 48 451.5 L 40 451.5  A 1.5 1.5 0 0 1 38.5 450 L 38.5 442  Z " stroke-width="1" stroke="#cccccc" fill="none" />
  <path d="M 40.5714285714286 446  L 43.1428571428571 448.571428571429  " stroke-width="2.57142857142857" stroke="#cccccc" fill="none" />
  <path d="M 43.1428571428571 448.571428571429  L 47.4285714285714 442.571428571429  " stroke-width="2.57142857142857" stroke="#cccccc" fill="none" />
</svg>