<?xml version="1.0" encoding="utf-8"?>
<svg version="1.1" xmlns:xlink="http://www.w3.org/1999/xlink" width="12px" height="12px" viewBox="38 763  12 12" xmlns="http://www.w3.org/2000/svg">
  <path d="M 38.5 765  A 1.5 1.5 0 0 1 40 763.5 L 48 763.5  A 1.5 1.5 0 0 1 49.5 765 L 49.5 773  A 1.5 1.5 0 0 1 48 774.5 L 40 774.5  A 1.5 1.5 0 0 1 38.5 773 L 38.5 765  Z " fill-rule="nonzero" fill="#f0f0f0" stroke="none" />
  <path d="M 38.5 765  A 1.5 1.5 0 0 1 40 763.5 L 48 763.5  A 1.5 1.5 0 0 1 49.5 765 L 49.5 773  A 1.5 1.5 0 0 1 48 774.5 L 40 774.5  A 1.5 1.5 0 0 1 38.5 773 L 38.5 765  Z " stroke-width="1" stroke="#cccccc" fill="none" />
</svg>