<?xml version="1.0" encoding="utf-8"?>
<svg version="1.1" xmlns:xlink="http://www.w3.org/1999/xlink" width="12px" height="12px" viewBox="38 620  12 12" xmlns="http://www.w3.org/2000/svg">
  <path d="M 38.5 622  A 1.5 1.5 0 0 1 40 620.5 L 48 620.5  A 1.5 1.5 0 0 1 49.5 622 L 49.5 630  A 1.5 1.5 0 0 1 48 631.5 L 40 631.5  A 1.5 1.5 0 0 1 38.5 630 L 38.5 622  Z " fill-rule="nonzero" fill="#ffffff" stroke="none" />
  <path d="M 38.5 622  A 1.5 1.5 0 0 1 40 620.5 L 48 620.5  A 1.5 1.5 0 0 1 49.5 622 L 49.5 630  A 1.5 1.5 0 0 1 48 631.5 L 40 631.5  A 1.5 1.5 0 0 1 38.5 630 L 38.5 622  Z " stroke-width="1" stroke="#cccccc" fill="none" />
</svg>